<svg width="19" height="35" viewBox="0 0 19 35" fill="none" xmlns="http://www.w3.org/2000/svg">
<path d="M1.58346 34.8327C1.37552 34.8329 1.16958 34.7921 0.977477 34.7125C0.785376 34.6328 0.610897 34.5161 0.464063 34.3688C0.316949 34.2219 0.20024 34.0474 0.120613 33.8553C0.0409849 33.6632 0 33.4573 0 33.2494C0 33.0415 0.0409849 32.8356 0.120613 32.6435C0.20024 32.4515 0.316949 32.277 0.464063 32.13L15.1777 17.4163L0.464063 2.70266C-0.154614 2.08398 -0.154614 1.08214 0.464063 0.46386C1.08274 -0.154422 2.08458 -0.154818 2.70286 0.46386L18.5359 16.2969C18.6831 16.4439 18.7998 16.6184 18.8794 16.8104C18.959 17.0025 19 17.2084 19 17.4163C19 17.6243 18.959 17.8301 18.8794 18.0222C18.7998 18.2143 18.6831 18.3888 18.5359 18.5357L2.70286 34.3688C2.55603 34.5161 2.38155 34.6328 2.18945 34.7125C1.99734 34.7921 1.79141 34.8329 1.58346 34.8327Z" fill="#626262"/>
</svg>
