<svg width="32" height="28" viewBox="0 0 32 28" fill="none" xmlns="http://www.w3.org/2000/svg">
<path d="M10.7939 18.1643H27.1848C27.5907 18.1643 27.9468 17.8956 28.0566 17.5054L31.6858 4.79029C31.7638 4.51619 31.7104 4.22175 31.5386 3.99397C31.4539 3.88182 31.3443 3.79084 31.2186 3.72818C31.0928 3.66552 30.9543 3.63287 30.8138 3.63281H8.69945L8.0509 0.711426C8.00616 0.509621 7.89398 0.329132 7.73291 0.199781C7.57184 0.0704291 7.37151 -4.56657e-05 7.16501 2.22002e-08H1.66114C1.15974 2.22002e-08 0.753906 0.40627 0.753906 0.908203C0.753906 1.41032 1.15974 1.81641 1.66114 1.81641H6.43681L9.71307 16.5747C8.74904 16.9943 8.07225 17.9548 8.07225 19.0725C8.07225 20.5748 9.2932 21.7971 10.7939 21.7971H27.1848C27.6864 21.7971 28.0921 21.391 28.0921 20.8889C28.0921 20.387 27.6864 19.9807 27.1848 19.9807H10.7939C10.2942 19.9807 9.88671 19.5737 9.88671 19.0725C9.88671 18.5714 10.2942 18.1643 10.7939 18.1643ZM9.88671 24.5217C9.88671 26.0243 11.1077 27.2463 12.6086 27.2463C14.1093 27.2463 15.3303 26.0243 15.3303 24.5217C15.3303 23.0194 14.1093 21.7971 12.6086 21.7971C11.1077 21.7971 9.88671 23.0194 9.88671 24.5217ZM22.6487 24.5217C22.6487 26.0243 23.8696 27.2463 25.3704 27.2463C26.8713 27.2463 28.0921 26.0243 28.0921 24.5217C28.0921 23.0194 26.8713 21.7971 25.3704 21.7971C23.8696 21.7971 22.6487 23.0194 22.6487 24.5217Z" fill="white"/>
</svg>
