<svg width="25" height="22" viewBox="0 0 25 22" fill="none" xmlns="http://www.w3.org/2000/svg">
<path d="M8.10545 14.6486H21.338C21.6657 14.6486 21.9532 14.4319 22.0418 14.1172L24.9717 3.86312C25.0346 3.64208 24.9915 3.40463 24.8529 3.22094C24.7845 3.13049 24.696 3.05712 24.5945 3.00659C24.493 2.95605 24.3811 2.92973 24.2677 2.92968H6.41453L5.89095 0.573729C5.85483 0.410983 5.76427 0.265429 5.63424 0.161113C5.5042 0.0567975 5.34247 -3.68271e-05 5.17577 1.79033e-08H0.73242C0.327636 1.79033e-08 0 0.327636 0 0.73242C0 1.13735 0.327636 1.46484 0.73242 1.46484H4.58788L7.23284 13.3667C6.45457 13.705 5.90819 14.4796 5.90819 15.381C5.90819 16.5925 6.89388 17.5783 8.10545 17.5783H21.338C21.743 17.5783 22.0704 17.2508 22.0704 16.8458C22.0704 16.4411 21.743 16.1134 21.338 16.1134H8.10545C7.70203 16.1134 7.37303 15.7852 7.37303 15.381C7.37303 14.9769 7.70203 14.6486 8.10545 14.6486ZM7.37303 19.7755C7.37303 20.9872 8.35877 21.9728 9.57048 21.9728C10.782 21.9728 11.7677 20.9872 11.7677 19.7755C11.7677 18.564 10.782 17.5783 9.57048 17.5783C8.35877 17.5783 7.37303 18.564 7.37303 19.7755ZM17.6759 19.7755C17.6759 20.9872 18.6616 21.9728 19.8732 21.9728C21.0849 21.9728 22.0704 20.9872 22.0704 19.7755C22.0704 18.564 21.0849 17.5783 19.8732 17.5783C18.6616 17.5783 17.6759 18.564 17.6759 19.7755Z" fill="white"/>
</svg>
