<svg width="15" height="19" viewBox="0 0 15 19" fill="none" xmlns="http://www.w3.org/2000/svg">
<path d="M7.5 0C5.51169 0.0025135 3.60557 0.753987 2.19962 2.08964C0.793672 3.42529 0.00264579 5.2361 0 7.12499C0 12.2401 6.9875 18.6467 7.28437 18.9169C7.34212 18.9702 7.41947 19 7.5 19C7.58053 19 7.65788 18.9702 7.71562 18.9169C8.0125 18.6467 15 12.2401 15 7.12499C14.9974 5.2361 14.2063 3.42529 12.8004 2.08964C11.3944 0.753987 9.48831 0.0025135 7.5 0ZM7.5 10.3906C6.82013 10.3906 6.15552 10.1991 5.59023 9.84026C5.02493 9.48143 4.58434 8.97141 4.32416 8.37469C4.06399 7.77798 3.99591 7.12137 4.12855 6.4879C4.26119 5.85443 4.58858 5.27255 5.06932 4.81585C5.55006 4.35914 6.16257 4.04812 6.82938 3.92212C7.49619 3.79611 8.18735 3.86078 8.81547 4.10795C9.4436 4.35512 9.98046 4.77368 10.3582 5.31071C10.7359 5.84774 10.9375 6.47911 10.9375 7.12499C10.9369 7.99092 10.5746 8.82122 9.93004 9.43353C9.28551 10.0458 8.4115 10.3901 7.5 10.3906Z" fill="white"/>
</svg>
