<svg width="29" height="52" viewBox="0 0 29 52" fill="none" xmlns="http://www.w3.org/2000/svg">
<path d="M2.36385 51.9995C2.05342 51.9998 1.74599 51.9388 1.45921 51.82C1.17244 51.7011 0.911968 51.5268 0.69277 51.307C0.473153 51.0876 0.298926 50.8271 0.180055 50.5404C0.0611837 50.2536 0 49.9463 0 49.6359C0 49.3255 0.0611837 49.0181 0.180055 48.7314C0.298926 48.4446 0.473153 48.1842 0.69277 47.9648L22.6579 25.9997L0.69277 4.03462C-0.230813 3.11104 -0.230813 1.61546 0.69277 0.692466C1.61635 -0.230527 3.11193 -0.231117 4.03492 0.692466L27.6711 24.3286C27.8907 24.548 28.0649 24.8085 28.1838 25.0952C28.3027 25.382 28.3639 25.6893 28.3639 25.9997C28.3639 26.3101 28.3027 26.6175 28.1838 26.9042C28.0649 27.1909 27.8907 27.4514 27.6711 27.6708L4.03492 51.307C3.81572 51.5268 3.55526 51.7011 3.26848 51.82C2.98171 51.9388 2.67427 51.9998 2.36385 51.9995Z" fill="white"/>
</svg>
