<svg width="17" height="17" viewBox="0 0 17 17" fill="none" xmlns="http://www.w3.org/2000/svg">
<path d="M16.4668 12.8402C15.9415 12.3996 12.86 10.4483 12.3479 10.5379C12.1074 10.5805 11.9235 10.7855 11.4312 11.3728C11.2035 11.6619 10.9534 11.9327 10.6833 12.1826C10.1885 12.063 9.70947 11.8855 9.25625 11.6536C7.47887 10.7882 6.04297 9.35192 5.17816 7.57428C4.94627 7.12107 4.76871 6.64205 4.64917 6.14719C4.89907 5.8771 5.16982 5.62706 5.45889 5.39938C6.0456 4.90705 6.25119 4.72431 6.29387 4.48265C6.38343 3.96928 4.43035 0.889076 3.99153 0.363686C3.80758 0.146075 3.64046 0 3.42646 0C2.80609 0 0 3.46974 0 3.91939C0 3.95606 0.0601133 7.56827 4.62211 12.2096C9.26346 16.7716 12.8757 16.8317 12.9123 16.8317C13.362 16.8317 16.8317 14.0256 16.8317 13.4053C16.8317 13.1913 16.6857 13.0242 16.4668 12.8402ZM12.6238 7.81473H13.8261C13.8246 6.53973 13.3175 5.31736 12.4159 4.41579C11.5144 3.51423 10.292 3.0071 9.017 3.00567V4.20793C9.97329 4.20889 10.8901 4.5892 11.5663 5.26539C12.2425 5.94159 12.6228 6.85844 12.6238 7.81473Z" fill="white"/>
<path d="M15.63 7.81473H16.8323C16.8299 5.74287 16.0058 3.75655 14.5408 2.29152C13.0758 0.826488 11.0894 0.00238648 9.01758 0V1.20227C10.7707 1.20433 12.4514 1.90167 13.691 3.1413C14.9306 4.38093 15.628 6.06163 15.63 7.81473Z" fill="white"/>
</svg>
