<svg width="29" height="52" viewBox="0 0 29 52" fill="none" xmlns="http://www.w3.org/2000/svg">
<path d="M25.9994 1.52588e-05C26.3099 -0.000305176 26.6173 0.0607147 26.9041 0.179562C27.1908 0.298409 27.4513 0.472744 27.6705 0.692554C27.8901 0.911907 28.0644 1.17241 28.1832 1.45914C28.3021 1.74588 28.3633 2.05323 28.3633 2.36363C28.3633 2.67403 28.3021 2.98139 28.1832 3.26813C28.0644 3.55486 27.8901 3.81536 27.6705 4.03471L5.70542 25.9998L27.6705 47.9649C28.5941 48.8885 28.5941 50.3841 27.6705 51.307C26.7469 52.23 25.2514 52.2306 24.3284 51.307L0.692188 27.6709C0.47257 27.4515 0.298347 27.191 0.179476 26.9043C0.0606041 26.6176 -0.000579834 26.3102 -0.000579834 25.9998C-0.000579834 25.6894 0.0606041 25.382 0.179476 25.0953C0.298347 24.8086 0.47257 24.5481 0.692188 24.3287L24.3284 0.692554C24.5476 0.472744 24.808 0.298409 25.0948 0.179562C25.3816 0.0607147 25.689 -0.000305176 25.9994 1.52588e-05Z" fill="white"/>
</svg>
