<svg width="20" height="19" viewBox="0 0 20 19" fill="none" xmlns="http://www.w3.org/2000/svg">
<path d="M10 0C4.48578 0 0 4.26149 0 9.5C0 14.7385 4.48578 19 10 19C15.5142 19 20 14.7385 20 9.5C20 4.26149 15.5142 0 10 0ZM14.7559 14.4138C14.6786 14.4874 14.5868 14.5458 14.4857 14.5857C14.3846 14.6255 14.2762 14.646 14.1667 14.6459C14.0573 14.646 13.9489 14.6255 13.8478 14.5857C13.7467 14.5459 13.6548 14.4874 13.5776 14.4138L9.41086 10.4556C9.33331 10.3822 9.27182 10.295 9.22992 10.1989C9.18801 10.1028 9.16654 9.99986 9.16672 9.89588V4.75C9.16672 4.31222 9.53996 3.95838 10 3.95838C10.46 3.95838 10.8333 4.31222 10.8333 4.75V9.56813L14.7559 13.2944C15.0816 13.6041 15.0816 14.1043 14.7559 14.4138Z" fill="white"/>
</svg>
