<svg width="19" height="23" viewBox="0 0 19 23" fill="none" xmlns="http://www.w3.org/2000/svg">
<path d="M9.50046 12.4372C10.6565 12.4206 11.7648 11.9734 12.6087 11.183C13.4525 10.3926 13.9712 9.31585 14.0633 8.16333L14.2639 5.08935C14.3071 4.43729 14.216 3.7833 13.9961 3.1679C13.7763 2.5525 13.4324 1.98879 12.9859 1.51168C12.5393 1.03457 11.9995 0.654221 11.4 0.394195C10.8005 0.134168 10.154 0 9.50046 0C8.84697 0 8.20044 0.134168 7.60091 0.394195C7.00138 0.654221 6.46162 1.03457 6.01506 1.51168C5.5685 1.98879 5.22465 2.5525 5.00481 3.1679C4.78497 3.7833 4.69381 4.43729 4.737 5.08935L4.93765 8.16333C5.02974 9.31585 5.54841 10.3926 6.39224 11.183C7.23608 11.9734 8.34439 12.4206 9.50046 12.4372Z" fill="white"/>
<path d="M2.41299 13.2881C2.3849 13.2962 2.35681 13.3042 2.33273 13.3122C2.20432 13.3523 -0.725194 14.3717 0.169711 19.5846C0.194215 19.7337 0.252521 19.8752 0.340164 19.9984C0.427808 20.1215 0.542464 20.2229 0.675353 20.2949C3.37561 21.6714 6.35329 22.4165 9.38362 22.474H9.60835C12.6413 22.4173 15.6218 21.6722 18.3246 20.2949C18.4575 20.2229 18.5722 20.1215 18.6598 19.9984C18.7475 19.8752 18.8058 19.7337 18.8303 19.5846C19.7252 14.3717 16.7957 13.3523 16.6673 13.3122C16.6432 13.3042 16.6151 13.2962 16.587 13.2881C15.8398 13.1194 15.1122 12.8733 14.416 12.5538C14.2636 12.4811 14.0951 12.4484 13.9266 12.459C13.7581 12.4695 13.595 12.5228 13.4528 12.614L11.9869 13.549C11.2439 14.0227 10.3811 14.2743 9.5 14.2743C8.61888 14.2743 7.75608 14.0227 7.01313 13.549L5.54717 12.614C5.405 12.5228 5.24194 12.4695 5.07341 12.459C4.90488 12.4484 4.73645 12.4811 4.58404 12.5538C3.88783 12.8733 3.16022 13.1194 2.41299 13.2881Z" fill="white"/>
</svg>
