<svg width="25" height="25" viewBox="0 0 25 25" fill="none" xmlns="http://www.w3.org/2000/svg">
<g clip-path="url(#clip0_176_5117)">
<path d="M12.5 0C10.0146 0.00330724 7.63196 0.99209 5.87453 2.74953C4.11709 4.50696 3.12831 6.88961 3.125 9.375C3.125 16.1055 11.8594 24.5352 12.2305 24.8906C12.3027 24.9608 12.3993 25 12.5 25C12.6007 25 12.6973 24.9608 12.7695 24.8906C13.1406 24.5352 21.875 16.1055 21.875 9.375C21.8717 6.88961 20.8829 4.50696 19.1255 2.74953C17.368 0.99209 14.9854 0.00330724 12.5 0ZM12.5 13.6719C11.6502 13.6719 10.8194 13.4199 10.1128 12.9477C9.40617 12.4756 8.85543 11.8045 8.53021 11.0193C8.20499 10.2342 8.11989 9.37023 8.28569 8.53672C8.45148 7.70321 8.86072 6.93758 9.46165 6.33665C10.0626 5.73572 10.8282 5.32648 11.6617 5.16069C12.4952 4.99489 13.3592 5.07998 14.1443 5.40521C14.9295 5.73043 15.6006 6.28117 16.0727 6.98778C16.5449 7.6944 16.7969 8.52516 16.7969 9.375C16.7962 10.5144 16.3432 11.6069 15.5375 12.4125C14.7319 13.2182 13.6394 13.6712 12.5 13.6719Z" fill="white"/>
</g>
<defs>
<clipPath id="clip0_176_5117">
<rect width="25" height="25" fill="white"/>
</clipPath>
</defs>
</svg>
