<svg width="37" height="23" viewBox="0 0 37 23" fill="none" xmlns="http://www.w3.org/2000/svg">
<path d="M35.5769 2.4543H14.7051C14.3277 2.4543 13.9657 2.32502 13.6989 2.09488C13.432 1.86474 13.2821 1.55261 13.2821 1.22715C13.2821 0.901691 13.432 0.58956 13.6989 0.359424C13.9657 0.129289 14.3277 0 14.7051 0H35.5769C35.9543 0 36.3163 0.129289 36.5832 0.359424C36.8501 0.58956 37 0.901691 37 1.22715C37 1.55261 36.8501 1.86474 36.5832 2.09488C36.3163 2.32502 35.9543 2.4543 35.5769 2.4543ZM37 11.0444C37 10.7189 36.8501 10.4068 36.5832 10.1766C36.3163 9.9465 35.9543 9.81721 35.5769 9.81721H1.42308C1.04565 9.81721 0.683688 9.9465 0.416809 10.1766C0.149931 10.4068 0 10.7189 0 11.0444C0 11.3698 0.149931 11.682 0.416809 11.9121C0.683688 12.1422 1.04565 12.2715 1.42308 12.2715H35.5769C35.9543 12.2715 36.3163 12.1422 36.5832 11.9121C36.8501 11.682 37 11.3698 37 11.0444ZM23.7179 20.8616C23.7179 20.5361 23.568 20.224 23.3011 19.9939C23.0343 19.7637 22.6723 19.6344 22.2949 19.6344H1.42308C1.04565 19.6344 0.683688 19.7637 0.416809 19.9939C0.149931 20.224 0 20.5361 0 20.8616C0 21.187 0.149931 21.4992 0.416809 21.7293C0.683688 21.9594 1.04565 22.0887 1.42308 22.0887H22.2949C22.6723 22.0887 23.0343 21.9594 23.3011 21.7293C23.568 21.4992 23.7179 21.187 23.7179 20.8616Z" fill="white"/>
</svg>
