<svg xmlns="http://www.w3.org/2000/svg" xmlns:xlink="http://www.w3.org/1999/xlink" width="13.001" height="22" viewBox="0 0 13.001 22"><defs><clipPath id="a"><path d="M7.976,22H3.988a.945.945,0,0,1-1-1V14H1a.946.946,0,0,1-1-1V9A.945.945,0,0,1,1,8H2.991V6A6,6,0,0,1,8.973,0h2.991a.945.945,0,0,1,1,1V5a.945.945,0,0,1-1,1H8.973V8h2.991a.829.829,0,0,1,.8.3,1,1,0,0,1,.2.9l-1,4a.975.975,0,0,1-1,.8H8.973v7A.945.945,0,0,1,7.976,22ZM1.994,10h0v2H3.988a.945.945,0,0,1,1,1v7H6.979V13a.945.945,0,0,1,1-1h2.193l.5-2H7.976a.945.945,0,0,1-1-1V6A2,2,0,0,1,8.973,4h1.993V2H8.973A4,4,0,0,0,4.985,6V9a.945.945,0,0,1-1,1H1.994Z" transform="translate(6 1)" fill="#222b45"/></clipPath></defs><g transform="translate(-6 -1)"><path d="M7.976,22H3.988a.945.945,0,0,1-1-1V14H1a.946.946,0,0,1-1-1V9A.945.945,0,0,1,1,8H2.991V6A6,6,0,0,1,8.973,0h2.991a.945.945,0,0,1,1,1V5a.945.945,0,0,1-1,1H8.973V8h2.991a.829.829,0,0,1,.8.3,1,1,0,0,1,.2.9l-1,4a.975.975,0,0,1-1,.8H8.973v7A.945.945,0,0,1,7.976,22ZM1.994,10h0v2H3.988a.945.945,0,0,1,1,1v7H6.979V13a.945.945,0,0,1,1-1h2.193l.5-2H7.976a.945.945,0,0,1-1-1V6A2,2,0,0,1,8.973,4h1.993V2H8.973A4,4,0,0,0,4.985,6V9a.945.945,0,0,1-1,1H1.994Z" transform="translate(6 1)" fill="#fff"/></g></svg>