<svg xmlns="http://www.w3.org/2000/svg" xmlns:xlink="http://www.w3.org/1999/xlink" width="22" height="21" viewBox="0 0 22 21"><defs><clipPath id="a"><path d="M21,21H17a.947.947,0,0,1-1-1V13a1,1,0,0,0-2,0v7a.947.947,0,0,1-1,1H9a.947.947,0,0,1-1-1V13a7,7,0,1,1,14,0v7A.947.947,0,0,1,21,21ZM15,10a2.934,2.934,0,0,1,3,3v6h2V13a5,5,0,0,0-10,0v6h2V13A2.934,2.934,0,0,1,15,10ZM5,21H1a.947.947,0,0,1-1-1V8A.947.947,0,0,1,1,7H5A.947.947,0,0,1,6,8V20A.947.947,0,0,1,5,21ZM2,9V19H4V9ZM3,6A2.934,2.934,0,0,1,0,3,2.934,2.934,0,0,1,3,0,2.934,2.934,0,0,1,6,3,2.935,2.935,0,0,1,3,6ZM3,2A.947.947,0,0,0,2,3,.947.947,0,0,0,3,4,.947.947,0,0,0,4,3,.947.947,0,0,0,3,2Z" transform="translate(1 2)" fill="#222b45"/></clipPath></defs><g transform="translate(-1 -2)"><path d="M21,21H17a.947.947,0,0,1-1-1V13a1,1,0,0,0-2,0v7a.947.947,0,0,1-1,1H9a.947.947,0,0,1-1-1V13a7,7,0,1,1,14,0v7A.947.947,0,0,1,21,21ZM15,10a2.934,2.934,0,0,1,3,3v6h2V13a5,5,0,0,0-10,0v6h2V13A2.934,2.934,0,0,1,15,10ZM5,21H1a.947.947,0,0,1-1-1V8A.947.947,0,0,1,1,7H5A.947.947,0,0,1,6,8V20A.947.947,0,0,1,5,21ZM2,9V19H4V9ZM3,6A2.934,2.934,0,0,1,0,3,2.934,2.934,0,0,1,3,0,2.934,2.934,0,0,1,6,3,2.935,2.935,0,0,1,3,6ZM3,2A.947.947,0,0,0,2,3,.947.947,0,0,0,3,4,.947.947,0,0,0,4,3,.947.947,0,0,0,3,2Z" transform="translate(1 2)" fill="#fff"/></g></svg>