<svg width="24" height="24" viewBox="0 0 24 24" fill="none" xmlns="http://www.w3.org/2000/svg">
<path d="M23.3621 8.5655L15.9841 7.4385L12.6771 0.3945C12.4301 -0.1315 11.5671 -0.1315 11.3201 0.3945L8.01412 7.4385L0.636118 8.5655C0.499895 8.58643 0.372073 8.64448 0.266685 8.7333C0.161297 8.82211 0.0824196 8.93825 0.0387128 9.06896C-0.00499396 9.19966 -0.0118398 9.33989 0.0189269 9.47423C0.0496936 9.60857 0.116883 9.73184 0.213118 9.8305L5.57312 15.3245L4.30612 23.0915C4.2835 23.2304 4.30041 23.3729 4.35493 23.5026C4.40946 23.6324 4.49939 23.7442 4.61444 23.8252C4.7295 23.9063 4.86504 23.9533 5.00556 23.961C5.14609 23.9686 5.28594 23.9366 5.40912 23.8685L11.9991 20.2265L18.5891 23.8695C18.7123 23.9376 18.8521 23.9696 18.9927 23.962C19.1332 23.9543 19.2687 23.9073 19.3838 23.8262C19.4989 23.7452 19.5888 23.6334 19.6433 23.5036C19.6978 23.3739 19.7147 23.2314 19.6921 23.0925L18.4251 15.3255L23.7851 9.8315C23.8816 9.73287 23.9491 9.60953 23.98 9.47504C24.0109 9.34055 24.0042 9.20014 23.9604 9.06926C23.9167 8.93837 23.8377 8.82209 23.7321 8.73321C23.6266 8.64433 23.4985 8.5863 23.3621 8.5655Z" fill="#FFC107"/>
</svg>
