<svg width="24" height="24" viewBox="0 0 24 24" fill="none" xmlns="http://www.w3.org/2000/svg">
<path d="M23.2866 9.05977L23.2868 9.05979C23.3322 9.06672 23.3749 9.08607 23.4101 9.11569L23.7321 8.73321L23.4101 9.11569C23.4453 9.14532 23.4716 9.18408 23.4862 9.2277C23.5008 9.27134 23.503 9.31814 23.4927 9.36297L23.98 9.47504L23.4927 9.36297C23.4824 9.4078 23.4599 9.44891 23.4278 9.48179L23.4272 9.48234L18.0672 14.9763L17.891 15.157L17.9316 15.406L19.1986 23.1729C19.2062 23.2192 19.2005 23.2667 19.1824 23.3099C19.1642 23.3532 19.1342 23.3904 19.0958 23.4174C19.0575 23.4445 19.0123 23.4601 18.9655 23.4627C18.9186 23.4652 18.872 23.4546 18.831 23.4319L12.241 19.7889L11.9992 19.6552L11.7573 19.7889L5.16728 23.4309C5.16728 23.4309 5.16727 23.4309 5.16727 23.4309C5.12621 23.4536 5.0796 23.4642 5.03276 23.4617C4.98592 23.4591 4.94074 23.4435 4.90239 23.4164C4.86404 23.3894 4.83406 23.3522 4.81589 23.3089C4.79773 23.2657 4.79209 23.2183 4.7996 23.172C4.7996 23.172 4.79961 23.1719 4.79962 23.1719L6.0666 15.405L6.10722 15.156L5.93101 14.9753L0.57104 9.48137C0.538961 9.44848 0.516564 9.40739 0.506309 9.36261C0.496053 9.31783 0.498335 9.27109 0.512904 9.22752C0.527473 9.18395 0.553766 9.14524 0.588895 9.11563C0.624024 9.08603 0.666631 9.06668 0.712041 9.0597L8.08962 7.93277L8.35338 7.89248L8.46675 7.65093L11.7727 0.607026C11.7938 0.562176 11.8629 0.5 11.9986 0.5C12.1344 0.5 12.2035 0.562176 12.2245 0.607026L15.5315 7.65099L15.6449 7.89248L15.9086 7.93277L23.2866 9.05977Z" stroke="#FFC107"/>
</svg>
