<svg width="29" height="54" viewBox="0 0 29 54" fill="none" xmlns="http://www.w3.org/2000/svg">
<path d="M2.36385 53.3623C2.05342 53.3627 1.74599 53.3009 1.45921 53.1805C1.17244 53.0602 0.911968 52.8836 0.69277 52.661C0.473153 52.4389 0.298926 52.1751 0.180055 51.8848C0.0611837 51.5944 0 51.2831 0 50.9688C0 50.6545 0.0611837 50.3433 0.180055 50.0529C0.298926 49.7625 0.473153 49.4987 0.69277 49.2766L22.6579 27.0337L0.69277 4.79073C-0.230813 3.85547 -0.230813 2.34097 0.69277 1.4063C1.61635 0.471636 3.11193 0.471037 4.03492 1.4063L27.6711 25.3415C27.8907 25.5636 28.0649 25.8274 28.1838 26.1177C28.3027 26.4081 28.3639 26.7193 28.3639 27.0337C28.3639 27.348 28.3027 27.6592 28.1838 27.9496C28.0649 28.24 27.8907 28.5038 27.6711 28.7259L4.03492 52.661C3.81572 52.8836 3.55526 53.0602 3.26848 53.1805C2.98171 53.3009 2.67427 53.3627 2.36385 53.3623Z" fill="white"/>
</svg>
