<svg width="29" height="54" viewBox="0 0 29 54" fill="none" xmlns="http://www.w3.org/2000/svg">
<path d="M25.9994 0.705044C26.3099 0.70472 26.6173 0.76651 26.9041 0.88686C27.1908 1.00721 27.4513 1.18375 27.6705 1.40635C27.8901 1.62847 28.0644 1.89226 28.1832 2.18262C28.3021 2.47299 28.3633 2.78423 28.3633 3.09856C28.3633 3.41289 28.3021 3.72413 28.1832 4.0145C28.0644 4.30486 27.8901 4.56865 27.6705 4.79078L5.70542 27.0337L27.6705 49.2767C28.5941 50.2119 28.5941 51.7264 27.6705 52.6611C26.7469 53.5957 25.2514 53.5963 24.3284 52.6611L0.692188 28.7259C0.47257 28.5038 0.298347 28.24 0.179476 27.9496C0.0606041 27.6593 -0.000579834 27.348 -0.000579834 27.0337C-0.000579834 26.7194 0.0606041 26.4081 0.179476 26.1178C0.298347 25.8274 0.47257 25.5636 0.692188 25.3415L24.3284 1.40635C24.5476 1.18375 24.808 1.00721 25.0948 0.88686C25.3816 0.76651 25.689 0.70472 25.9994 0.705044Z" fill="#000
"/>
</svg>
