<svg width="70" height="70" viewBox="0 0 70 70" fill="none" xmlns="http://www.w3.org/2000/svg">
<path d="M61.6069 22.1431C61.3415 22.26 61.1334 22.4776 61.0284 22.7479C60.9234 23.0182 60.9301 23.3192 61.0469 23.5846C72.2874 49.7657 42.5428 74.3839 18.9397 58.4687C18.7099 58.3259 18.4373 58.2683 18.1694 58.3061C17.9015 58.3439 17.6554 58.4746 17.4741 58.6754C16.9857 59.271 16.3466 59.7248 15.6234 59.9897C14.9001 60.2546 14.1191 60.3208 13.3616 60.1815C8.15097 59.2157 8.82691 51.5814 14.1196 51.5048C15.0106 51.5065 15.8798 51.7803 16.611 52.2895C17.3422 52.7986 17.9005 53.5189 18.2113 54.354C18.3115 54.6263 18.5158 54.8475 18.7791 54.9692C19.0425 55.0908 19.3434 55.1028 19.6157 55.0026C19.8879 54.9024 20.1092 54.6981 20.2308 54.4347C20.3524 54.1714 20.3645 53.8705 20.2642 53.5982C19.8932 52.6225 19.2956 51.7489 18.5209 51.0493C17.7461 50.3497 16.8162 49.8441 15.8078 49.5742C14.7993 49.3043 13.7412 49.2778 12.7206 49.4969C11.6999 49.716 10.7459 50.1744 9.93706 50.8343C5.63862 54.2064 7.57019 61.552 12.9886 62.3373C13.9651 62.5124 14.9687 62.4612 15.9223 62.1876C16.8759 61.9139 17.754 61.4252 18.4891 60.759C23.4012 63.9542 29.1394 65.6455 34.9992 65.6251C56.6992 65.9675 72.0774 42.4048 63.0485 22.7031C62.9315 22.4377 62.714 22.2296 62.4436 22.1246C62.1733 22.0196 61.8723 22.0262 61.6069 22.1431ZM7.95081 47.9501C8.13234 47.9488 8.31071 47.9025 8.47 47.8154C8.62929 47.7283 8.76453 47.6032 8.86364 47.4511C8.96276 47.299 9.02267 47.1247 9.03801 46.9438C9.05336 46.763 9.02367 46.5811 8.95159 46.4145C-1.40841 22.8803 22.8882 -1.40755 46.4158 8.95464C47.7062 9.53047 48.9515 10.2025 50.1411 10.965C49.6034 11.9304 49.3197 13.0165 49.3164 14.1215C49.3279 15.8585 50.023 17.521 51.2512 18.7492C52.4795 19.9775 54.142 20.6725 55.8789 20.684C63.8392 20.5189 64.851 9.16901 57.0033 7.66183C56.7173 7.61309 56.4236 7.67998 56.1869 7.84776C55.9502 8.01555 55.7899 8.27049 55.7411 8.55651C55.6924 8.84253 55.7593 9.1362 55.9271 9.3729C56.0948 9.60961 56.3498 9.76997 56.6358 9.8187C57.5872 9.98634 58.4563 10.4643 59.1074 11.178C59.7585 11.8916 60.1549 12.8008 60.2348 13.7636C60.3147 14.7263 60.0736 15.6884 59.549 16.4996C59.0244 17.3108 58.246 17.9255 57.3353 18.2477C56.4245 18.5698 55.4327 18.5813 54.5148 18.2804C53.5968 17.9794 52.8043 17.383 52.2611 16.5841C51.7178 15.7853 51.4544 14.8291 51.5119 13.8647C51.5695 12.9004 51.9447 11.9823 52.5791 11.2537C52.7308 11.0109 52.7863 10.7202 52.7344 10.4386C52.6826 10.1571 52.5273 9.90512 52.2991 9.73229C32.371 -4.21192 4.16097 10.6445 4.37425 35.0001C4.36287 39.2341 5.24 43.4233 6.94894 47.2971C7.03459 47.4917 7.17507 47.657 7.35319 47.773C7.53131 47.8889 7.73827 47.9505 7.95081 47.9501Z" fill="#D3001F"/>
<path d="M35 16.4062C30.0703 16.4118 25.3441 18.3725 21.8583 21.8583C18.3725 25.3441 16.4118 30.0703 16.4062 35C17.4278 59.6673 52.5766 59.6597 53.5938 35C53.5882 30.0703 51.6275 25.3441 48.1417 21.8583C44.6559 18.3725 39.9297 16.4118 35 16.4062ZM36.0938 51.3516V48.7484C36.0938 48.4584 35.9785 48.1802 35.7734 47.975C35.5683 47.7699 35.2901 47.6547 35 47.6547C34.7099 47.6547 34.4317 47.7699 34.2266 47.975C34.0215 48.1802 33.9062 48.4584 33.9062 48.7484V51.3494C29.9483 51.0813 26.2216 49.388 23.4162 46.5831C20.6109 43.7782 18.9171 40.0517 18.6484 36.0938H21.2505C21.5406 36.0938 21.8187 35.9785 22.0239 35.7734C22.229 35.5683 22.3442 35.2901 22.3442 35C22.3442 34.7099 22.229 34.4317 22.0239 34.2266C21.8187 34.0215 21.5406 33.9062 21.2505 33.9062H18.6484C18.9168 29.948 20.6105 26.2211 23.4158 23.4158C26.2211 20.6105 29.948 18.9168 33.9062 18.6484V21.2505C33.9062 21.5406 34.0215 21.8187 34.2266 22.0239C34.4317 22.229 34.7099 22.3442 35 22.3442C35.2901 22.3442 35.5683 22.229 35.7734 22.0239C35.9785 21.8187 36.0938 21.5406 36.0938 21.2505V18.6484C40.052 18.9168 43.7789 20.6105 46.5842 23.4158C49.3895 26.2211 51.0832 29.948 51.3516 33.9062H48.7484C48.4584 33.9062 48.1802 34.0215 47.975 34.2266C47.7699 34.4317 47.6547 34.7099 47.6547 35C47.6547 35.2901 47.7699 35.5683 47.975 35.7734C48.1802 35.9785 48.4584 36.0938 48.7484 36.0938H51.3494C51.0813 40.0517 49.388 43.7784 46.5831 46.5838C43.7782 49.3891 40.0517 51.0829 36.0938 51.3516Z" fill="#D3001F"/>
<path d="M35.0001 25.1562C34.7101 25.1562 34.4319 25.2715 34.2267 25.4766C34.0216 25.6817 33.9064 25.9599 33.9064 26.25V34.5472L30.6908 37.7628C30.5864 37.8638 30.5031 37.9845 30.4459 38.118C30.3887 38.2515 30.3586 38.395 30.3575 38.5403C30.3563 38.6855 30.3841 38.8295 30.4392 38.9639C30.4943 39.0982 30.5756 39.2203 30.6783 39.3229C30.7811 39.4256 30.9033 39.5067 31.0377 39.5616C31.1722 39.6165 31.3162 39.6441 31.4614 39.6427C31.6067 39.6413 31.7502 39.6111 31.8836 39.5536C32.017 39.4962 32.1376 39.4128 32.2384 39.3083L35.7723 35.7744C35.9767 35.5683 36.0922 35.2903 36.0939 35V26.25C36.0939 25.9599 35.9787 25.6817 35.7735 25.4766C35.5684 25.2715 35.2902 25.1562 35.0001 25.1562Z" fill="#D3001F"/>
</svg>
