<svg width="70" height="70" viewBox="0 0 70 70" fill="none" xmlns="http://www.w3.org/2000/svg">
<path d="M41.1469 48.2289H37.2225C37.1154 48.2283 37.0107 48.1976 36.9203 48.1401C36.8299 48.0826 36.7576 48.0008 36.7117 47.9041L33.9062 41.9114C33.5482 41.1549 32.9832 40.5152 32.2767 40.0663C31.5702 39.6174 30.7511 39.3778 29.9141 39.375H17.5328C16.6952 39.3777 15.8755 39.6175 15.1686 40.0668C14.4617 40.5161 13.8965 41.1564 13.5384 41.9136L10.7362 47.9008C10.6905 47.9986 10.6178 48.0813 10.5268 48.1394C10.4358 48.1975 10.3302 48.2285 10.2222 48.2289H8.78938C7.61926 48.2298 6.49728 48.6948 5.66967 49.522C4.84207 50.3492 4.37645 51.471 4.375 52.6411V58.7223C4.37558 59.4524 4.66577 60.1524 5.1819 60.6687C5.69802 61.1851 6.39791 61.4755 7.12797 61.4764H9.47187C9.72176 62.6501 10.367 63.7025 11.2997 64.4575C12.2324 65.2126 13.3961 65.6245 14.5961 65.6245C15.7961 65.6245 16.9598 65.2126 17.8925 64.4575C18.8252 63.7025 19.4704 62.6501 19.7203 61.4764H30.2159C30.4762 62.6412 31.1255 63.6825 32.0569 64.4287C32.9883 65.175 34.1461 65.5816 35.3396 65.5816C36.5331 65.5816 37.6909 65.175 38.6223 64.4287C39.5537 63.6825 40.203 62.6412 40.4633 61.4764H42.8072C43.5372 61.4755 44.2371 61.1851 44.7533 60.6687C45.2694 60.1524 45.5596 59.4524 45.5602 58.7223V52.6411C45.5587 51.4714 45.0934 50.3499 44.2663 49.5228C43.4391 48.6957 42.3166 48.2304 41.1469 48.2289ZM14.5972 63.4375C13.787 63.4375 13.01 63.1157 12.4371 62.5428C11.8642 61.9699 11.5423 61.1929 11.5423 60.3827C11.5423 59.5725 11.8642 58.7955 12.4371 58.2226C13.01 57.6497 13.787 57.3278 14.5972 57.3278C15.4074 57.3278 16.1844 57.6497 16.7573 58.2226C17.3302 58.7955 17.652 59.5725 17.652 60.3827C17.652 61.1929 17.3302 61.9699 16.7573 62.5428C16.1844 63.1157 15.4074 63.4375 14.5972 63.4375ZM35.3412 63.4375C34.5311 63.4375 33.754 63.1157 33.1812 62.5428C32.6083 61.9699 32.2864 61.1929 32.2864 60.3827C32.2864 59.5725 32.6083 58.7955 33.1812 58.2226C33.754 57.6497 34.5311 57.3278 35.3412 57.3278C36.1514 57.3278 36.9285 57.6497 37.5014 58.2226C38.0742 58.7955 38.3961 59.5725 38.3961 60.3827C38.3961 61.1929 38.0742 61.9699 37.5014 62.5428C36.9285 63.1157 36.1514 63.4375 35.3412 63.4375ZM43.3737 58.7234C43.3715 58.8727 43.3112 59.0152 43.2056 59.1208C43.1001 59.2263 42.9576 59.2866 42.8083 59.2889H40.4644C40.2046 58.1236 39.5554 57.0816 38.6239 56.3349C37.6923 55.5882 36.5341 55.1812 35.3402 55.1812C34.1463 55.1812 32.988 55.5882 32.0565 56.3349C31.1249 57.0816 30.4757 58.1236 30.2159 59.2889H19.7203C19.4601 58.1241 18.8107 57.0828 17.8794 56.3366C16.948 55.5903 15.7901 55.1837 14.5966 55.1837C13.4032 55.1837 12.2453 55.5903 11.3139 56.3366C10.3825 57.0828 9.73321 58.1241 9.47297 59.2889H7.12797C6.97843 59.2869 6.83559 59.2266 6.72994 59.1207C6.62429 59.0148 6.5642 58.8719 6.5625 58.7223V52.6411C6.56308 52.0511 6.7978 51.4854 7.21512 51.0683C7.63244 50.6511 8.19825 50.4167 8.78828 50.4164H10.2233C10.7462 50.4146 11.2578 50.2646 11.699 49.9839C12.1401 49.7033 12.4927 49.3033 12.7159 48.8305L15.5192 42.8433C15.6998 42.4616 15.9847 42.1387 16.341 41.9121C16.6974 41.6854 17.1105 41.5642 17.5328 41.5625H29.9141C30.336 41.5641 30.7488 41.685 31.1049 41.9113C31.461 42.1375 31.7458 42.4599 31.9266 42.8411L34.4487 48.2289H23.567C23.4595 48.2283 23.3544 48.1973 23.2638 48.1395C23.1732 48.0816 23.1008 47.9992 23.0552 47.9019L21.4583 44.4894C21.3322 44.2317 21.11 44.0339 20.8395 43.9386C20.5689 43.8432 20.2718 43.8579 20.012 43.9796C19.7523 44.1012 19.5507 44.32 19.4507 44.5889C19.3507 44.8577 19.3603 45.1551 19.4775 45.4169L21.0744 48.8294C21.2973 49.3026 21.65 49.7029 22.0915 49.9836C22.5329 50.2644 23.045 50.4141 23.5681 50.4153H36.5509C36.9939 50.3738 40.6142 50.4427 41.148 50.4153C41.738 50.4159 42.3037 50.6506 42.7208 51.0679C43.1379 51.4853 43.3724 52.0511 43.3727 52.6411L43.3737 58.7234ZM56.3905 4.375C53.9422 4.37789 51.5951 5.35175 49.8639 7.08293C48.1327 8.81411 47.1588 11.1613 47.1559 13.6095C47.1559 18.8508 52.4683 25.2219 54.7531 27.7167C54.9623 27.9419 55.2156 28.1216 55.4974 28.2444C55.7791 28.3672 56.0831 28.4306 56.3905 28.4306C56.6978 28.4306 57.0019 28.3672 57.2836 28.2444C57.5653 28.1216 57.8187 27.9419 58.0278 27.7167C60.3127 25.2219 65.625 18.8508 65.625 13.6095C65.6221 11.1613 64.6483 8.81411 62.9171 7.08293C61.1859 5.35175 58.8387 4.37789 56.3905 4.375ZM56.3664 26.2402C54.7192 24.4398 49.3434 18.2098 49.3434 13.6095C49.3434 11.7405 50.0859 9.9481 51.4075 8.62653C52.729 7.30495 54.5215 6.5625 56.3905 6.5625C58.2595 6.5625 60.0519 7.30495 61.3735 8.62653C62.695 9.9481 63.4375 11.7405 63.4375 13.6095C63.4375 18.2098 58.0617 24.4398 56.3664 26.2402Z" fill="#D3001F"/>
<path d="M56.3915 9.23438C55.2312 9.23438 54.1184 9.69531 53.2979 10.5158C52.4775 11.3363 52.0165 12.4491 52.0165 13.6094C52.0165 14.7697 52.4775 15.8825 53.2979 16.703C54.1184 17.5234 55.2312 17.9844 56.3915 17.9844C57.5518 17.9844 58.6646 17.5234 59.4851 16.703C60.3056 15.8825 60.7665 14.7697 60.7665 13.6094C60.7665 12.4491 60.3056 11.3363 59.4851 10.5158C58.6646 9.69531 57.5518 9.23438 56.3915 9.23438ZM56.3915 15.7969C55.8114 15.7969 55.255 15.5664 54.8447 15.1562C54.4345 14.7459 54.204 14.1895 54.204 13.6094C54.204 13.0292 54.4345 12.4728 54.8447 12.0626C55.255 11.6523 55.8114 11.4219 56.3915 11.4219C56.9717 11.4219 57.5281 11.6523 57.9383 12.0626C58.3486 12.4728 58.579 13.0292 58.579 13.6094C58.579 14.1895 58.3486 14.7459 57.9383 15.1562C57.5281 15.5664 56.9717 15.7969 56.3915 15.7969ZM43.8714 12.5123H38.4026C38.1125 12.5123 37.8343 12.6276 37.6292 12.8327C37.4241 13.0378 37.3089 13.316 37.3089 13.6061C37.3089 13.8962 37.4241 14.1744 37.6292 14.3795C37.8343 14.5846 38.1125 14.6998 38.4026 14.6998H43.8714C44.1614 14.6998 44.4397 14.5846 44.6448 14.3795C44.8499 14.1744 44.9651 13.8962 44.9651 13.6061C44.9651 13.316 44.8499 13.0378 44.6448 12.8327C44.4397 12.6276 44.1614 12.5123 43.8714 12.5123ZM41.8807 33.9061C41.8807 34.1962 41.996 34.4744 42.2011 34.6795C42.4062 34.8846 42.6844 34.9998 42.9745 34.9998H48.4432C48.7333 34.9998 49.0115 34.8846 49.2166 34.6795C49.4218 34.4744 49.537 34.1962 49.537 33.9061C49.537 33.616 49.4218 33.3378 49.2166 33.1327C49.0115 32.9276 48.7333 32.8123 48.4432 32.8123H42.9745C42.6844 32.8123 42.4062 32.9276 42.2011 33.1327C41.996 33.3378 41.8807 33.616 41.8807 33.9061ZM9.48387 31.9122C8.39012 34.0888 14.1771 35.0502 15.6307 34.9998C15.9208 34.9984 16.1984 34.8818 16.4025 34.6756C16.6066 34.4695 16.7205 34.1907 16.719 33.9006C16.7176 33.6105 16.6009 33.3329 16.3948 33.1288C16.1887 32.9247 15.9099 32.8109 15.6198 32.8123C13.9877 32.8119 12.3861 32.3701 10.9845 31.5338C10.7352 31.3854 10.4373 31.3419 10.156 31.4128C9.87467 31.4838 9.63298 31.6633 9.48387 31.9122ZM58.602 36.2358C58.8545 36.3782 59.1531 36.4148 59.4325 36.3375C59.7119 36.2602 59.9493 36.0754 60.0928 35.8234C61.1373 33.6436 55.3514 32.7806 53.9131 32.8123C53.7695 32.8123 53.6272 32.8405 53.4945 32.8954C53.3618 32.9503 53.2411 33.0308 53.1395 33.1323C53.0379 33.2338 52.9573 33.3544 52.9023 33.487C52.8472 33.6197 52.8189 33.7619 52.8188 33.9055C52.8187 34.0492 52.8469 34.1914 52.9018 34.3241C52.9567 34.4569 53.0372 34.5775 53.1388 34.6791C53.2403 34.7807 53.3608 34.8613 53.4935 34.9164C53.6261 34.9714 53.7684 34.9998 53.912 34.9998C55.5556 35.0017 57.1709 35.4274 58.602 36.2358ZM63.8104 48.5492C63.6836 48.4814 63.5446 48.4393 63.4015 48.4254C63.2584 48.4115 63.1139 48.426 62.9764 48.468C62.8389 48.5101 62.711 48.579 62.6002 48.6706C62.4894 48.7622 62.3978 48.8749 62.3306 49.002C61.8845 49.842 61.3144 50.61 60.6397 51.2803C59.9747 52.1816 57.9315 52.6814 58.7103 54.0803C59.7953 55.465 61.3003 53.5586 62.1862 52.8269C62.9726 51.8687 65.4653 49.6156 63.8104 48.5492ZM62.4498 38.1214C62.2016 38.2712 62.023 38.5134 61.9533 38.7948C61.8836 39.0761 61.9284 39.3737 62.0779 39.622C62.9235 41.0306 63.3906 42.6337 63.4342 44.2759C63.4379 44.4196 63.4699 44.5611 63.5283 44.6923C63.5867 44.8236 63.6704 44.9421 63.7746 45.041C63.8788 45.1399 64.0015 45.2174 64.1356 45.2689C64.2698 45.3204 64.4127 45.345 64.5564 45.3413C64.7 45.3375 64.8415 45.3055 64.9728 45.2471C65.104 45.1887 65.2225 45.105 65.3214 45.0008C65.4204 44.8966 65.4978 44.7739 65.5493 44.6398C65.6008 44.5057 65.6254 44.3627 65.6217 44.2191C65.6184 42.7884 64.6012 37.0167 62.4498 38.1214ZM10.7351 13.6269C9.44668 14.1737 4.59371 17.6322 6.54168 19.0803C6.66153 19.1596 6.79582 19.2144 6.93688 19.2418C7.07794 19.2691 7.223 19.2684 7.36378 19.2396C7.50456 19.2109 7.63829 19.1547 7.75735 19.0742C7.8764 18.9938 7.97843 18.8907 8.05762 18.7708C8.95952 17.4054 10.2133 16.3088 11.6867 15.5967C11.9479 15.4705 12.1483 15.2457 12.2438 14.9718C12.3393 14.6979 12.322 14.3972 12.1958 14.136C12.0696 13.8748 11.8449 13.6744 11.5709 13.5789C11.297 13.4834 10.9963 13.5007 10.7351 13.6269ZM4.38699 23.2584C4.27106 24.6891 4.97981 30.5352 7.20559 29.5333C7.33204 29.465 7.44378 29.3724 7.53443 29.2609C7.62508 29.1493 7.69286 29.021 7.7339 28.8833C7.77494 28.7456 7.78843 28.6011 7.7736 28.4581C7.75876 28.3152 7.7159 28.1765 7.64746 28.0502C6.93641 26.7321 6.56395 25.2581 6.56356 23.7605C6.91246 22.098 4.63856 21.5489 4.38699 23.2584ZM54.425 54.0628C54.2532 54.0727 54.0761 54.0727 53.9 54.0748H49.0164C48.7263 54.0748 48.4481 54.1901 48.243 54.3952C48.0378 54.6003 47.9226 54.8785 47.9226 55.1686C47.9226 55.4587 48.0378 55.7369 48.243 55.942C48.4481 56.1471 48.7263 56.2623 49.0164 56.2623C49.432 56.258 54.2773 56.2787 54.5453 56.2459C54.8284 56.2215 55.0909 56.0878 55.2771 55.8731C55.4634 55.6585 55.5588 55.3798 55.5432 55.0961C55.5275 54.8123 55.4021 54.5458 55.1934 54.3529C54.9846 54.1601 54.7091 54.056 54.425 54.0628ZM20.0057 33.9061C20.0057 34.1962 20.121 34.4744 20.3261 34.6795C20.5312 34.8846 20.8094 34.9998 21.0995 34.9998H26.5682C26.8583 34.9998 27.1365 34.8846 27.3416 34.6795C27.5468 34.4744 27.662 34.1962 27.662 33.9061C27.662 33.616 27.5468 33.3378 27.3416 33.1327C27.1365 32.9276 26.8583 32.8123 26.5682 32.8123H21.0995C20.8094 32.8123 20.5312 32.9276 20.3261 33.1327C20.121 33.3378 20.0057 33.616 20.0057 33.9061ZM32.9339 12.5123H27.4651C27.175 12.5123 26.8968 12.6276 26.6917 12.8327C26.4866 13.0378 26.3714 13.316 26.3714 13.6061C26.3714 13.8962 26.4866 14.1744 26.6917 14.3795C26.8968 14.5846 27.175 14.6998 27.4651 14.6998H32.9339C33.2239 14.6998 33.5021 14.5846 33.7073 14.3795C33.9124 14.1744 34.0276 13.8962 34.0276 13.6061C34.0276 13.316 33.9124 13.0378 33.7073 12.8327C33.5021 12.6276 33.2239 12.5123 32.9339 12.5123ZM30.9432 33.9061C30.9432 34.1962 31.0585 34.4744 31.2636 34.6795C31.4687 34.8846 31.7469 34.9998 32.037 34.9998H37.5057C37.7958 34.9998 38.074 34.8846 38.2791 34.6795C38.4843 34.4744 38.5995 34.1962 38.5995 33.9061C38.5995 33.616 38.4843 33.3378 38.2791 33.1327C38.074 32.9276 37.7958 32.8123 37.5057 32.8123H32.037C31.7469 32.8123 31.4687 32.9276 31.2636 33.1327C31.0585 33.3378 30.9432 33.616 30.9432 33.9061ZM21.9964 12.5123H16.5276C16.2375 12.5123 15.9593 12.6276 15.7542 12.8327C15.5491 13.0378 15.4339 13.316 15.4339 13.6061C15.4339 13.8962 15.5491 14.1744 15.7542 14.3795C15.9593 14.5846 16.2375 14.6998 16.5276 14.6998H21.9964C22.2864 14.6998 22.5646 14.5846 22.7698 14.3795C22.9749 14.1744 23.0901 13.8962 23.0901 13.6061C23.0901 13.316 22.9749 13.0378 22.7698 12.8327C22.5646 12.6276 22.2864 12.5123 21.9964 12.5123Z" fill="#D3001F"/>
</svg>
