<svg width="81" height="81" viewBox="0 0 81 81" fill="none" xmlns="http://www.w3.org/2000/svg">
<path d="M72.1406 17.7188H17.4023C16.3957 17.7198 15.4305 18.1201 14.7187 18.8319C14.0068 19.5438 13.6065 20.5089 13.6055 21.5156V26.268H8.85938C7.85269 26.2691 6.88752 26.6694 6.17569 27.3812C5.46385 28.0931 5.06351 29.0582 5.0625 30.0649V59.4844C5.06351 60.4911 5.46385 61.4562 6.17569 62.1681C6.88752 62.8799 7.85269 63.2802 8.85938 63.2812H63.5977C64.6043 63.2802 65.5695 62.8799 66.2813 62.1681C66.9932 61.4562 67.3935 60.4911 67.3945 59.4844V54.732H72.1406C73.1473 54.7309 74.1125 54.3306 74.8243 53.6188C75.5361 52.9069 75.9365 51.9418 75.9375 50.9351V21.5156C75.9365 20.5089 75.5361 19.5438 74.8243 18.8319C74.1125 18.1201 73.1473 17.7198 72.1406 17.7188ZM54.813 28.7993C55.1037 31.3645 56.256 33.7552 58.0816 35.5806C59.9072 37.4059 62.298 38.558 64.8633 38.8484V50.6997C62.2979 50.9901 59.9069 52.1423 58.0812 53.968C56.2556 55.7936 55.1034 58.1846 54.813 60.75H17.6441C17.3536 58.1846 16.2014 55.7936 14.3758 53.968C12.5502 52.1423 10.1592 50.9901 7.59375 50.6997V38.8496C10.1592 38.5592 12.5502 37.407 14.3758 35.5813C16.2014 33.7557 17.3536 31.3647 17.6441 28.7993H54.813ZM64.8633 36.2918C62.9742 36.0161 61.2245 35.138 59.8746 33.788C58.5246 32.4381 57.6465 30.6884 57.3708 28.7993H63.5977C63.9332 28.7996 64.2549 28.9331 64.4922 29.1704C64.7295 29.4076 64.8629 29.7294 64.8633 30.0649V36.2918ZM8.85938 28.7993C8.94417 28.8056 14.8293 28.7942 14.9015 28.7993H15.0863C14.8106 30.6884 13.9324 32.4381 12.5825 33.788C11.2325 35.138 9.48286 36.0161 7.59375 36.2918V30.0649C7.59408 29.7294 7.72754 29.4076 7.96481 29.1704C8.20209 28.9331 8.52381 28.7996 8.85938 28.7993ZM7.59375 59.4844V53.2575C9.48286 53.5332 11.2325 54.4113 12.5825 55.7613C13.9324 57.1112 14.8106 58.8609 15.0863 60.75H8.85938C8.52381 60.7497 8.20209 60.6162 7.96481 60.3789C7.72754 60.1417 7.59408 59.8199 7.59375 59.4844ZM64.8633 59.4844C64.8629 59.8199 64.7295 60.1417 64.4922 60.3789C64.2549 60.6162 63.9332 60.7497 63.5977 60.75H57.3708C57.6463 58.8608 58.5243 57.111 59.8743 55.7611C61.2243 54.4111 62.9741 53.533 64.8633 53.2575V59.4844ZM73.4062 50.9351C73.4059 51.2706 73.2725 51.5924 73.0352 51.8296C72.7979 52.0669 72.4762 52.2004 72.1406 52.2007H67.3945V30.0649C67.3935 29.0582 66.9932 28.0931 66.2813 27.3812C65.5695 26.6694 64.6043 26.2691 63.5977 26.268H16.1367V21.5156C16.1371 21.1801 16.2705 20.8583 16.5078 20.6211C16.7451 20.3838 17.0668 20.2503 17.4023 20.25H72.1406C72.4762 20.2503 72.7979 20.3838 73.0352 20.6211C73.2725 20.8583 73.4059 21.1801 73.4062 21.5156V50.9351Z" fill="#D3001F"/>
<path d="M36.2294 49.7327C35.7397 49.7323 35.2702 49.5377 34.924 49.1915C34.5778 48.8452 34.3831 48.3758 34.3828 47.8861C34.3828 47.5505 34.2495 47.2285 34.0121 46.9912C33.7748 46.7538 33.4529 46.6205 33.1172 46.6205C32.7815 46.6205 32.4596 46.7538 32.2223 46.9912C31.9849 47.2285 31.8516 47.5505 31.8516 47.8861C31.8548 48.8228 32.1591 49.7337 32.7195 50.4843C33.2798 51.235 34.0666 51.7856 34.9637 52.0551C34.6688 54.4028 37.7861 54.4142 37.495 52.0551C38.4916 51.7461 39.3449 51.0908 39.9005 50.2076C40.4562 49.3244 40.6776 48.2715 40.5248 47.2393C40.3719 46.2071 39.8549 45.2637 39.0671 44.5794C38.2793 43.8951 37.2728 43.5152 36.2294 43.5083C35.8641 43.5083 35.507 43.4 35.2033 43.197C34.8997 42.9941 34.663 42.7056 34.5233 42.3681C34.3835 42.0306 34.347 41.6593 34.4184 41.3011C34.4897 40.9428 34.6657 40.6138 34.9241 40.3556C35.1825 40.0974 35.5116 39.9217 35.8699 39.8506C36.2282 39.7795 36.5995 39.8162 36.9369 39.9562C37.2743 40.0961 37.5626 40.333 37.7653 40.6368C37.9681 40.9406 38.0762 41.2978 38.0759 41.663C38.0759 41.9987 38.2092 42.3206 38.4466 42.558C38.6839 42.7953 39.0059 42.9287 39.3415 42.9287C39.6772 42.9287 39.9991 42.7953 40.2365 42.558C40.4738 42.3206 40.6072 41.9987 40.6072 41.663C40.6039 40.7263 40.2996 39.8155 39.7393 39.0648C39.1789 38.3142 38.3921 37.7635 37.495 37.4941C37.7899 35.1463 34.6726 35.135 34.9637 37.4941C33.968 37.8038 33.1159 38.4593 32.561 39.3422C32.0062 40.225 31.7852 41.2772 31.938 42.3087C32.0907 43.3402 32.6072 44.2831 33.3941 44.9673C34.1811 45.6514 35.1866 46.0317 36.2294 46.0396C36.7191 46.0396 37.1888 46.2341 37.5351 46.5804C37.8814 46.9267 38.0759 47.3964 38.0759 47.8861C38.0759 48.3759 37.8814 48.8455 37.5351 49.1918C37.1888 49.5381 36.7191 49.7327 36.2294 49.7327Z" fill="#D3001F"/>
<path d="M36.2266 58.063C39.7498 58.059 43.1276 56.6576 45.6189 54.1663C48.1102 51.675 49.5116 48.2972 49.5156 44.774C48.7854 27.1438 23.6652 27.1501 22.9375 44.774C22.9415 48.2972 24.3429 51.675 26.8342 54.1663C29.3255 56.6576 32.7033 58.059 36.2266 58.063ZM36.2266 34.0161C39.0787 34.0195 41.813 35.154 43.8298 37.1707C45.8465 39.1875 46.981 41.9218 46.9844 44.774C46.444 59.0262 26.0079 59.0224 25.4688 44.774C25.4721 41.9218 26.6066 39.1875 28.6233 37.1707C30.6401 35.154 33.3744 34.0195 36.2266 34.0161Z" fill="#D3001F"/>
</svg>
