<svg width="85" height="85" viewBox="0 0 85 85" fill="none" xmlns="http://www.w3.org/2000/svg">
<path d="M78.3591 30.3239C74.9039 30.198 71.5151 31.2961 68.7903 33.4246C66.0656 35.5531 64.1798 38.5752 63.4655 41.9582C63.0051 41.3597 62.5394 40.7802 62.0684 40.2197C61.2304 34.5847 58.5264 29.3937 54.3891 25.4774C50.2518 21.5611 44.9203 19.1458 39.2478 18.6182C33.5753 18.0906 27.8899 19.4811 23.1012 22.5672C18.3125 25.6533 14.6976 30.2566 12.8347 35.6403C10.0085 38.3961 7.54005 41.4963 5.48756 44.8682C5.37284 45.069 5.3125 45.2963 5.3125 45.5276C5.3125 45.7589 5.37284 45.9862 5.48756 46.187C7.38412 50.4237 24.2407 71.9925 44.3883 64.1047C44.7154 63.9739 44.9771 63.7184 45.1158 63.3946C45.2545 63.0709 45.259 62.7052 45.1281 62.3782C44.9973 62.0511 44.7418 61.7894 44.418 61.6507C44.0942 61.512 43.7286 61.5075 43.4016 61.6384C36.3625 64.5669 27.6699 62.6345 22.0294 59.1375C28.2503 46.0077 20.2709 51.3946 33.8696 52.2831C39.1744 52.2946 44.2671 50.2011 48.0301 46.4619C48.2775 46.2118 48.4163 45.8741 48.4163 45.5223C48.4163 45.1704 48.2775 44.8327 48.0301 44.5826C45.0717 41.6288 41.2607 39.6782 37.1346 39.0057C33.0085 38.3333 28.7754 38.973 25.0323 40.8346C24.5241 37.7161 23.5103 34.7015 22.0307 31.9096C26.8561 28.9358 32.514 27.6029 38.1594 28.1099C38.5062 28.1373 38.8498 28.0276 39.1165 27.8044C39.3833 27.5811 39.5518 27.2622 39.5859 26.9161C39.62 26.5699 39.5169 26.2242 39.2989 25.9533C39.0808 25.6823 38.7652 25.5077 38.4198 25.4669C31.0873 24.8276 23.7778 26.9264 17.9015 31.3585C20.2383 27.834 23.5097 25.0293 27.3497 23.2583C31.1898 21.4873 35.4469 20.8199 39.6447 21.3307C43.8425 21.8415 47.8153 23.5105 51.1185 26.1507C54.4217 28.791 56.925 32.2984 58.3483 36.2805C54.8029 32.91 50.7868 30.0723 46.4257 27.8562C45.504 27.3342 44.0842 26.6702 43.4905 27.9717C43.3471 28.293 43.3371 28.6581 43.4626 28.9868C43.5881 29.3155 43.8389 29.5809 44.1599 29.7249C51.6713 33.2307 58.1041 38.6884 62.7869 45.5282C60.6752 48.6099 58.1889 51.4173 55.3852 53.8861C53.3776 55.667 51.2332 57.2875 48.9717 58.7325C48.7213 58.9414 48.5522 59.2316 48.4939 59.5525C48.4357 59.8734 48.492 60.2046 48.653 60.4882C50.0605 62.3618 51.8864 63.8805 53.985 64.9232C56.0836 65.9659 58.3969 66.5038 60.7402 66.494C61.0925 66.494 61.4303 66.3541 61.6793 66.105C61.9284 65.8559 62.0684 65.5181 62.0684 65.1659C62.0727 61.39 60.6598 57.75 58.1092 54.9659C60.0675 53.1723 61.8606 51.2063 63.4669 49.0916C64.1551 52.3769 65.9518 55.3257 68.5558 57.4437C71.1598 59.5617 74.4128 60.7201 77.7694 60.7246C78.6859 60.8269 79.6713 60.4869 79.6873 59.3965C79.7916 56.4972 79.0343 53.632 77.511 51.163C75.9877 48.6939 73.7668 46.7317 71.1288 45.5243C73.6779 44.3631 75.8396 42.494 77.3569 40.1395C78.8741 37.7849 79.683 35.0441 79.6873 32.243C79.7869 31.3133 79.4482 30.3425 78.3591 30.3239ZM33.9121 41.3871C38.0263 41.3801 42.0068 42.8473 45.1321 45.5229C42.4198 47.8111 39.0724 49.2147 35.5393 49.5452C32.0062 49.8756 28.4565 49.1172 25.3669 47.3717C25.4454 46.1386 25.4454 44.9019 25.3669 43.6689C27.9659 42.1719 30.9128 41.3845 33.9121 41.3858V41.3871ZM19.7928 57.6965C15.2132 54.3879 11.2839 50.2622 8.20225 45.5269C11.2816 40.7883 15.2113 36.6605 19.7928 33.352C21.7435 37.1129 22.7618 41.2875 22.7618 45.5243C22.7618 49.761 21.7435 53.9356 19.7928 57.6965ZM51.7594 60.034C53.2807 59.0176 54.7448 57.918 56.1449 56.7403C57.9258 58.683 59.043 61.1415 59.3351 63.7607C56.4513 63.4443 53.7701 62.1254 51.7594 60.034ZM77.0071 58.0418C74.1076 57.8532 71.3758 56.6164 69.3211 54.5619C67.2664 52.5075 66.0292 49.7757 65.8402 46.8763C68.7395 47.0652 71.471 48.3022 73.5254 50.3566C75.5799 52.411 76.8182 55.1426 77.0071 58.0418ZM65.8402 44.1709C66.0291 41.2715 67.2661 38.5398 69.3204 36.4852C71.3748 34.4305 74.1064 33.1932 77.0058 33.004C76.8172 35.9035 75.5803 38.6354 73.5259 40.6901C71.4714 42.7448 68.7397 43.982 65.8402 44.1709Z" fill="#D3001F"/>
<path d="M15.3711 46.7236C15.7233 46.7236 16.0611 46.5837 16.3102 46.3346C16.5593 46.0856 16.6992 45.7477 16.6992 45.3955C16.6992 45.0433 16.5593 44.7055 16.3102 44.4564C16.0611 44.2073 15.7233 44.0674 15.3711 44.0674C15.0189 44.0674 14.681 44.2073 14.432 44.4564C14.1829 44.7055 14.043 45.0433 14.043 45.3955C14.043 45.7477 14.1829 46.0856 14.432 46.3346C14.681 46.5837 15.0189 46.7236 15.3711 46.7236Z" fill="#D3001F"/>
</svg>
