<svg width="25" height="25" fill="none" xmlns="http://www.w3.org/2000/svg"><path d="M22.963 18.25c-.683-.573-4.687-3.109-5.353-2.992-.312.055-.551.322-1.191 1.085a9.131 9.131 0 01-.972 1.052 8.399 8.399 0 01-1.855-.687 11.484 11.484 0 01-5.3-5.302 8.403 8.403 0 01-.687-1.854 9.13 9.13 0 011.052-.972c.763-.64 1.03-.878 1.085-1.192.117-.667-2.422-4.67-2.992-5.353-.24-.283-.456-.473-.734-.473-.807 0-4.454 4.51-4.454 5.094 0 .048.079 4.742 6.008 10.774 6.032 5.93 10.726 6.008 10.774 6.008.584 0 5.093-3.647 5.093-4.454 0-.278-.19-.495-.474-.734zm-4.994-6.531h1.562a6.257 6.257 0 00-6.25-6.25V7.03a4.692 4.692 0 014.688 4.688z" fill="#fff"/><path d="M21.875 11.719h1.563A10.168 10.168 0 0013.28 1.563v1.562a8.604 8.604 0 018.594 8.594z" fill="#fff"/></svg>