<?xml version="1.0" encoding="utf-8"?><svg viewBox="0 0 2000 2000" xmlns="http://www.w3.org/2000/svg" xmlns:xlink="http://www.w3.org/1999/xlink"><style>:root>svg{display:none}:root>svg:target{display:block}</style><svg viewBox="-4.5 0 22 22" id="icons--facebook" xmlns="http://www.w3.org/2000/svg"><path d="M7.976 22H3.988a.945.945 0 0 1-1-1v-7H1a.946.946 0 0 1-1-1V9a.945.945 0 0 1 1-1h1.991V6a6 6 0 0 1 5.982-6h2.991a.945.945 0 0 1 1 1v4a.945.945 0 0 1-1 1H8.973v2h2.991a.829.829 0 0 1 .8.3 1 1 0 0 1 .2.9l-1 4a.975.975 0 0 1-1 .8H8.973v7a.945.945 0 0 1-.997 1ZM1.994 10v2h1.994a.945.945 0 0 1 1 1v7h1.991v-7a.945.945 0 0 1 1-1h2.193l.5-2H7.976a.945.945 0 0 1-1-1V6a2 2 0 0 1 1.997-2h1.993V2H8.973a4 4 0 0 0-3.988 4v3a.945.945 0 0 1-1 1H1.994Z" fill="#fff"/></svg><svg viewBox="0 0 22 22" id="icons--instagram" xmlns="http://www.w3.org/2000/svg"><path d="M16 22H6a6.007 6.007 0 0 1-6-6V6a6.007 6.007 0 0 1 6-6h10a6.007 6.007 0 0 1 6 6v10a6.006 6.006 0 0 1-6 6ZM6 2a4.005 4.005 0 0 0-4 4v10a4 4 0 0 0 4 4h10a4 4 0 0 0 4-4V6a4 4 0 0 0-4-4Zm5 14a4.877 4.877 0 0 1-3.2-1.213A5.181 5.181 0 0 1 6.1 11.7a5 5 0 0 1 .937-3.713A4.929 4.929 0 0 1 10.3 6a3.793 3.793 0 0 1 1.5 0 4.691 4.691 0 0 1 4.1 4.2 4.9 4.9 0 0 1-.9 3.7 4.986 4.986 0 0 1-3.3 2 1.706 1.706 0 0 1-.7.1Zm-.4-8a2.918 2.918 0 0 0-1.974 1.191A2.875 2.875 0 0 0 8.1 11.4a3.019 3.019 0 0 0 3.021 2.523 3.054 3.054 0 0 0 .379-.023 3.193 3.193 0 0 0 2-1.2 2.769 2.769 0 0 0 .4-2.2A2.976 2.976 0 0 0 11.4 8h-.8Zm5.9-1.5a1.026 1.026 0 0 1-1-1 .6.6 0 0 1 .1-.4c0-.1.107-.207.2-.3a.967.967 0 0 1 1.4 0c.1.1.2.2.2.3a.359.359 0 0 0 .037.131.657.657 0 0 1 .063.269.905.905 0 0 1-.3.7 1.076 1.076 0 0 1-.7.3Z" fill="#fff"/></svg><svg viewBox="0 -0.5 22 22" id="icons--linkedin" xmlns="http://www.w3.org/2000/svg"><path d="M21 21h-4a.947.947 0 0 1-1-1v-7a1 1 0 0 0-2 0v7a.947.947 0 0 1-1 1H9a.947.947 0 0 1-1-1v-7a7 7 0 1 1 14 0v7a.947.947 0 0 1-1 1Zm-6-11a2.934 2.934 0 0 1 3 3v6h2v-6a5 5 0 0 0-10 0v6h2v-6a2.934 2.934 0 0 1 3-3ZM5 21H1a.947.947 0 0 1-1-1V8a.947.947 0 0 1 1-1h4a.947.947 0 0 1 1 1v12a.947.947 0 0 1-1 1ZM2 9v10h2V9Zm1-3a2.934 2.934 0 0 1-3-3 2.934 2.934 0 0 1 3-3 2.934 2.934 0 0 1 3 3 2.935 2.935 0 0 1-3 3Zm0-4a.947.947 0 0 0-1 1 .947.947 0 0 0 1 1 .947.947 0 0 0 1-1 .947.947 0 0 0-1-1Z" fill="#fff"/></svg><svg viewBox="0 -2 24 24" id="icons--twitter" xmlns="http://www.w3.org/2000/svg"><path d="M8.208 20a15.732 15.732 0 0 1-7.683-2.112 1.02 1.02 0 0 1-.5-1.106 1.081 1.081 0 0 1 1-.7 11.415 11.415 0 0 0 4.89-1.005 9.63 9.63 0 0 1-4.79-8.045 12.6 12.6 0 0 1 1-5.431.866.866 0 0 1 .8-.6.961.961 0 0 1 .9.4A9.6 9.6 0 0 0 11 5.519 5.169 5.169 0 0 1 13 1.4 5.3 5.3 0 0 1 16.576 0a5.36 5.36 0 0 1 3.607 1.4 9.989 9.989 0 0 0 2.3-1.207 1.071 1.071 0 0 1 1.1 0 .956.956 0 0 1 .4 1.005 8.334 8.334 0 0 1-2 3.821v.5c0 5.6-2.437 10.18-6.685 12.57A13.645 13.645 0 0 1 8.208 20ZM3.418 4.111a8.283 8.283 0 0 0 4.99 10.056.941.941 0 0 1 .1 1.71 11.686 11.686 0 0 1-3.592 1.71 13.831 13.831 0 0 0 3.273.4 12.08 12.08 0 0 0 6.106-1.609c3.615-2.125 5.688-6.084 5.688-10.861a1.293 1.293 0 0 0-.1-.6 1.406 1.406 0 0 1 .3-.9c.1-.152.2-.28.3-.4s.2-.25.3-.4a1.431 1.431 0 0 1-.351.1 1.438 1.438 0 0 0-.348.1.752.752 0 0 1-.24.038 1.092 1.092 0 0 1-.758-.339 3.464 3.464 0 0 0-2.619-1.178 3.3 3.3 0 0 0-2.271.876A3.608 3.608 0 0 0 13 5.519v1.005a1.085 1.085 0 0 1-1 1.006c-.117 0-.235.005-.352.005a11.667 11.667 0 0 1-8.23-3.424Z" fill="#fff"/></svg><svg fill="none" viewBox="0 0 25 25" id="logo" xmlns="http://www.w3.org/2000/svg"><path d="M22.963 18.25c-.683-.573-4.687-3.109-5.353-2.992-.312.055-.551.322-1.191 1.085-.296.376-.621.727-.972 1.052a8.399 8.399 0 0 1-1.855-.687 11.484 11.484 0 0 1-5.3-5.302 8.403 8.403 0 0 1-.687-1.854 9.13 9.13 0 0 1 1.052-.972c.763-.64 1.03-.878 1.085-1.192.117-.667-2.422-4.67-2.992-5.353-.24-.283-.456-.473-.734-.473-.807 0-4.454 4.51-4.454 5.094 0 .048.079 4.742 6.008 10.774 6.032 5.93 10.726 6.008 10.774 6.008.584 0 5.093-3.647 5.093-4.454 0-.278-.19-.495-.474-.734Zm-4.994-6.531h1.562a6.257 6.257 0 0 0-6.25-6.25V7.03a4.692 4.692 0 0 1 4.688 4.688Z" fill="#fff"/><path d="M21.875 11.719h1.563A10.168 10.168 0 0 0 13.28 1.563v1.562a8.604 8.604 0 0 1 8.594 8.594Z" fill="#fff"/></svg></svg>